<svg width="512" height="512" viewBox="0 0 512 512" fill="none" xmlns="http://www.w3.org/2000/svg">
<rect width="512" height="512" fill="black"/>
<path d="M194.82 375.353C160.333 375.353 133.363 368.279 113.909 354.131C94.4554 339.983 84.139 320.087 82.96 294.443H145.743C146.922 302.107 151.491 309.033 159.449 315.223C167.702 321.118 179.935 324.066 196.146 324.066C208.526 324.066 218.695 322.003 226.653 317.876C234.907 313.455 239.033 307.265 239.033 299.306C239.033 292.232 235.938 286.632 229.748 282.505C223.559 278.084 212.505 274.989 196.588 273.22L177.577 271.452C148.396 268.504 126.436 260.399 111.699 247.135C97.2556 233.871 90.0341 216.922 90.0341 196.289C90.0341 179.193 94.3081 164.898 102.856 153.402C111.404 141.907 123.194 133.211 138.227 127.316C153.554 121.421 170.945 118.474 190.398 118.474C221.643 118.474 246.844 125.4 266.003 139.254C285.162 152.813 295.184 172.561 296.068 198.5H233.285C232.106 190.541 227.98 183.909 220.906 178.604C213.832 173.003 203.368 170.203 189.514 170.203C178.608 170.203 169.913 172.267 163.428 176.393C156.944 180.52 153.701 186.12 153.701 193.194C153.701 199.974 156.502 205.132 162.102 208.669C167.702 212.206 176.84 214.711 189.514 216.185L208.526 217.954C238.296 221.196 261.435 229.449 277.941 242.713C294.447 255.977 302.7 273.81 302.7 296.211C302.7 312.423 298.279 326.571 289.436 338.656C280.594 350.446 268.067 359.584 251.855 366.069C235.644 372.258 216.632 375.353 194.82 375.353Z" fill="white"/>
<path d="M334.026 367.837V288.695H411.842V367.837H334.026Z" fill="white"/>
<path fill-rule="evenodd" clip-rule="evenodd" d="M81 292.969H163.435L164.781 301.717C165.444 306.028 168.054 310.763 174.451 315.787C180.209 319.823 189.885 322.592 204.988 322.592C216.272 322.592 224.649 320.705 230.685 317.592C236.247 314.595 237.558 311.546 237.558 308.149C237.558 304.732 236.364 302.263 232.868 299.932L232.729 299.84L232.594 299.743C228.723 296.978 220.025 294.072 204.38 292.327L185.422 290.563L185.382 290.559C155.016 287.492 130.619 278.928 113.639 263.646L113.6 263.611L113.562 263.576C96.8697 248.246 88.5594 228.483 88.5594 205.132C88.5594 186.26 93.3068 169.689 103.419 156.089C113.261 142.854 126.707 133.063 143.302 126.555L143.333 126.542L143.365 126.53C160.07 120.105 178.749 117 199.24 117C231.941 117 259.447 124.249 280.848 139.706C302.914 155.342 314.241 178.241 315.221 206.991L315.584 217.659H233.226L231.922 208.855C231.183 203.863 228.694 199.552 223.558 195.7L223.45 195.619L223.344 195.535C218.841 191.97 211.065 189.363 198.356 189.363C188.628 189.363 182.082 191.22 177.809 193.94C173.992 196.368 172.86 198.84 172.86 202.037C172.86 205.378 173.929 207.196 176.453 208.789C180.013 211.038 187.197 213.335 199.432 214.767L218.404 216.532L218.485 216.541C249.437 219.912 274.693 228.607 293.245 243.514C312.346 258.863 321.859 279.735 321.859 305.054C321.859 323.265 316.849 339.59 306.604 353.591L306.568 353.64L306.531 353.689C296.359 367.252 282.169 377.434 264.528 384.49L264.453 384.52L264.377 384.549C246.731 391.286 226.421 394.513 203.662 394.513C167.906 394.513 138.517 387.196 116.683 371.317C94.5051 355.188 82.8079 332.292 81.4961 303.76L81 292.969ZM198.356 225.028C185.681 223.554 176.544 221.049 170.944 217.512C165.343 213.975 162.543 208.816 162.543 202.037C162.543 194.963 165.785 189.363 172.27 185.236C178.755 181.109 187.45 179.046 198.356 179.046C212.209 179.046 222.673 181.846 229.747 187.447C236.822 192.752 240.948 199.384 242.127 207.343H304.91C304.789 203.788 304.496 200.349 304.032 197.026C301.107 176.107 291.378 159.797 274.845 148.097C255.686 134.243 230.484 127.316 199.24 127.316C179.786 127.316 162.396 130.264 147.068 136.159C132.036 142.054 120.246 150.75 111.698 162.245C103.15 173.741 98.8758 188.036 98.8758 205.132C98.8758 225.765 106.097 242.713 120.54 255.977C135.278 269.241 157.237 277.347 186.418 280.295L205.43 282.063C221.347 283.832 232.4 286.927 238.59 291.348C244.78 295.475 247.875 301.075 247.875 308.149C247.875 316.108 243.748 322.297 235.495 326.719C227.537 330.845 217.368 332.909 204.988 332.909C188.776 332.909 176.544 329.961 168.291 324.066C160.332 317.876 155.764 310.949 154.585 303.286H91.8017C91.9648 306.835 92.303 310.273 92.8162 313.602C96.0111 334.326 105.989 350.783 122.751 362.974C142.205 377.122 169.175 384.196 203.662 384.196C225.473 384.196 244.485 381.101 260.697 374.911C276.908 368.427 289.435 359.289 298.278 347.499C307.121 335.414 311.542 321.266 311.542 305.054C311.542 282.653 303.289 264.82 286.783 251.556C270.276 238.292 247.138 230.039 217.368 226.797L198.356 225.028ZM332.552 386.996V287.221H431V386.996H332.552ZM342.868 376.68H420.684V297.538H342.868V376.68Z" fill="white"/>
</svg>
